<?xml version="1.0" standalone="no"?>
<!DOCTYPE svg PUBLIC "-//W3C//DTD SVG 20010904//EN"
 "http://www.w3.org/TR/2001/REC-SVG-20010904/DTD/svg10.dtd">
<svg version="1.0" xmlns="http://www.w3.org/2000/svg"
 width="1000.000000pt" height="1000.000000pt" viewBox="0 0 1000.000000 1000.000000"
 preserveAspectRatio="xMidYMid meet">

<g transform="translate(0.000000,1000.000000) scale(0.100000,-0.100000)"
fill="#000000" stroke="none">
<path d="M4780 8314 c-8 -2 -60 -8 -115 -14 -125 -13 -272 -36 -375 -60 -25
-6 -64 -13 -88 -17 -23 -3 -45 -10 -48 -14 -3 -5 -18 -9 -34 -9 -16 0 -32 -4
-35 -10 -3 -5 -19 -10 -35 -10 -16 0 -32 -4 -35 -10 -3 -5 -15 -10 -26 -10
-10 0 -27 -4 -37 -9 -9 -5 -35 -14 -57 -20 -22 -7 -49 -16 -60 -20 -11 -5 -31
-13 -45 -18 -57 -23 -83 -35 -250 -117 -96 -48 -194 -98 -218 -111 -58 -34
-254 -165 -270 -182 -7 -7 -17 -13 -22 -13 -5 0 -19 -10 -32 -23 -13 -12 -39
-33 -58 -47 -19 -13 -42 -31 -50 -40 -8 -8 -44 -40 -80 -70 -83 -71 -252 -240
-310 -310 -24 -30 -52 -62 -60 -70 -8 -8 -27 -31 -42 -52 -15 -20 -34 -42 -41
-50 -7 -7 -33 -42 -57 -78 -24 -36 -47 -66 -52 -68 -4 -2 -8 -8 -8 -13 0 -6
-18 -36 -39 -68 -40 -59 -68 -106 -105 -176 -12 -22 -23 -42 -26 -45 -10 -9
-121 -243 -140 -295 -4 -11 -13 -33 -20 -50 -7 -16 -16 -39 -21 -50 -4 -11
-22 -65 -40 -120 -17 -55 -35 -108 -40 -117 -5 -10 -9 -29 -9 -42 0 -14 -4
-27 -9 -30 -4 -3 -11 -22 -14 -43 -4 -21 -11 -58 -17 -83 -51 -210 -75 -436
-75 -700 0 -340 37 -630 114 -902 6 -21 15 -53 20 -70 11 -42 59 -187 70 -213
5 -11 17 -40 26 -65 41 -110 151 -334 228 -465 59 -98 154 -245 167 -255 3 -3
17 -21 30 -40 13 -19 27 -37 30 -40 3 -3 17 -21 30 -40 13 -19 31 -42 40 -50
8 -8 40 -44 70 -80 70 -83 236 -249 320 -320 35 -30 71 -61 78 -68 8 -7 30
-25 50 -40 21 -15 43 -33 50 -39 7 -7 17 -13 22 -13 5 0 15 -6 22 -13 7 -7 42
-33 78 -57 36 -24 67 -46 70 -49 3 -3 15 -12 28 -18 12 -7 32 -19 45 -25 12
-7 24 -15 27 -18 6 -6 43 -27 95 -54 22 -12 42 -23 45 -27 7 -7 216 -109 224
-109 3 0 28 -9 54 -21 71 -32 83 -37 127 -50 22 -7 45 -16 50 -19 6 -4 30 -12
55 -19 25 -7 53 -17 62 -22 10 -5 27 -9 37 -9 11 0 22 -4 25 -9 3 -5 20 -11
38 -14 18 -3 53 -11 78 -17 286 -71 486 -95 805 -95 268 0 498 19 625 50 14 3
45 11 70 16 73 16 184 45 230 59 14 4 45 13 70 20 42 11 54 16 113 39 12 5 38
14 57 21 40 14 64 23 103 39 15 6 37 15 50 20 33 13 241 115 247 121 5 5 73
42 117 64 13 6 23 14 23 19 0 4 4 7 10 7 9 0 123 69 147 90 7 5 16 10 21 10 4
0 17 8 28 18 10 10 35 28 54 42 19 13 37 27 40 30 3 3 21 17 42 32 20 15 42
33 50 40 7 7 38 33 68 58 70 57 312 299 365 365 22 27 46 56 53 63 7 8 25 30
40 50 15 21 29 39 33 42 3 3 25 34 49 70 24 36 49 71 56 78 7 6 16 21 19 32 3
11 10 20 15 20 5 0 12 9 15 20 3 11 12 26 18 32 12 13 34 51 79 138 13 25 25
47 28 50 6 5 81 158 110 225 10 22 27 61 39 87 12 26 21 52 21 58 0 6 5 19 10
30 6 11 15 29 20 40 6 11 10 27 10 35 0 8 4 23 9 33 12 23 57 178 80 275 32
138 43 194 60 312 33 232 42 550 21 724 -33 268 -29 238 -61 409 -25 134 -111
434 -139 484 -6 10 -10 22 -10 28 0 6 -9 32 -21 58 -12 26 -25 56 -29 67 -72
176 -275 533 -366 644 -7 9 -34 45 -61 81 -26 36 -54 72 -63 80 -8 8 -40 44
-70 80 -69 81 -230 243 -295 295 -28 22 -60 50 -72 62 -12 12 -40 34 -60 50
-21 15 -40 30 -43 33 -3 3 -21 17 -40 30 -19 13 -37 27 -40 30 -10 13 -220
150 -229 150 -5 0 -11 3 -13 8 -5 11 -49 35 -238 128 -185 91 -195 95 -250
114 -19 7 -44 16 -55 21 -11 4 -65 22 -120 40 -55 17 -109 35 -120 39 -37 14
-156 44 -240 60 -33 6 -78 16 -100 20 -50 11 -168 27 -303 40 -95 9 -458 12
-492 4z m590 -64 c30 -5 89 -14 130 -20 92 -14 173 -28 223 -41 158 -39 260
-66 292 -79 11 -4 36 -13 55 -20 19 -7 44 -16 55 -20 11 -4 36 -13 55 -20 58
-20 69 -25 245 -111 94 -46 199 -101 235 -123 76 -46 273 -176 280 -186 3 -3
21 -17 40 -30 19 -13 42 -31 50 -40 8 -8 35 -31 60 -50 113 -87 350 -325 440
-440 19 -25 37 -47 40 -50 3 -3 17 -21 30 -40 13 -19 27 -37 30 -40 13 -10
167 -245 200 -305 37 -68 142 -277 172 -345 20 -44 30 -67 51 -120 5 -14 13
-33 18 -42 5 -10 9 -27 9 -37 0 -11 5 -23 10 -26 6 -3 10 -17 10 -30 0 -13 4
-26 9 -29 5 -3 11 -18 14 -33 3 -16 10 -44 16 -63 23 -79 33 -117 42 -157 50
-233 63 -323 80 -558 27 -387 -12 -737 -122 -1115 -6 -19 -13 -47 -16 -63 -3
-15 -9 -30 -14 -33 -5 -3 -9 -16 -9 -29 0 -13 -4 -27 -10 -30 -5 -3 -10 -15
-10 -26 0 -10 -4 -27 -9 -37 -15 -27 -51 -111 -51 -118 0 -18 -172 -366 -190
-384 -10 -10 -41 -65 -47 -82 -3 -10 -9 -18 -13 -18 -4 0 -13 -14 -20 -30 -7
-17 -16 -30 -21 -30 -5 0 -9 -6 -9 -13 0 -7 -8 -22 -18 -33 -10 -10 -28 -35
-42 -54 -13 -19 -27 -37 -30 -40 -3 -3 -17 -21 -30 -40 -13 -19 -27 -37 -30
-40 -3 -3 -13 -15 -22 -28 -64 -94 -353 -385 -478 -482 -25 -19 -47 -37 -50
-40 -3 -3 -21 -17 -40 -30 -19 -13 -37 -27 -40 -30 -7 -9 -212 -146 -253 -169
-19 -10 -45 -25 -58 -33 -13 -7 -26 -15 -29 -18 -5 -5 -96 -54 -170 -91 -57
-29 -162 -76 -200 -89 -19 -7 -44 -16 -55 -20 -11 -4 -36 -13 -55 -20 -19 -7
-44 -16 -55 -20 -26 -11 -128 -44 -185 -60 -25 -7 -56 -16 -70 -20 -14 -4 -52
-13 -85 -20 -33 -6 -78 -16 -100 -20 -78 -17 -101 -21 -175 -30 -89 -12 -386
-33 -450 -33 -64 0 -372 22 -450 32 -117 16 -318 56 -405 81 -22 6 -52 14 -68
17 -15 3 -30 9 -33 14 -3 5 -15 9 -28 9 -12 0 -26 4 -32 8 -5 5 -29 15 -54 22
-25 8 -49 16 -55 20 -5 3 -28 12 -50 19 -22 7 -49 16 -60 21 -139 57 -270 123
-410 205 -69 40 -336 219 -360 242 -11 10 -35 29 -54 43 -99 69 -424 397 -489
492 -9 13 -19 25 -22 28 -3 3 -17 21 -30 40 -13 19 -27 37 -30 40 -3 3 -17 21
-30 40 -14 19 -32 44 -42 54 -10 11 -18 26 -18 33 0 7 -4 13 -10 13 -5 0 -10
5 -10 11 0 6 -13 29 -29 52 -58 85 -185 327 -234 447 -10 25 -23 55 -28 68 -5
12 -13 33 -19 47 -5 14 -14 35 -19 48 -5 12 -15 40 -22 62 -6 22 -15 49 -19
60 -4 11 -13 40 -20 65 -7 25 -16 56 -20 70 -11 37 -27 99 -39 150 -5 25 -13
56 -16 70 -44 181 -73 645 -56 893 6 84 15 179 20 212 18 115 31 190 41 233
24 100 29 121 61 230 6 20 13 49 16 65 3 15 9 30 14 33 5 3 9 16 9 29 0 13 5
27 10 30 6 3 10 15 10 26 0 10 4 27 9 37 5 9 13 28 18 42 45 113 135 303 193
405 11 19 29 51 40 70 42 74 222 337 250 365 3 3 20 25 39 49 91 117 325 351
441 441 25 19 52 42 60 50 8 9 31 27 50 40 19 13 37 27 40 30 9 12 243 166
290 191 25 13 47 26 50 29 9 10 334 167 370 180 43 15 79 29 102 41 10 5 25 9
33 9 8 0 23 4 33 10 21 12 105 40 152 51 72 17 116 28 155 39 54 15 116 28
200 41 39 6 97 15 130 20 151 25 662 31 795 9z"/>
<path d="M4656 7851 c-3 -5 0 -11 8 -14 8 -3 16 -33 21 -84 10 -101 10 -114 0
-137 -8 -17 -5 -18 31 -12 44 9 53 14 38 24 -16 11 -38 192 -25 205 6 6 11 15
11 19 0 11 -77 10 -84 -1z"/>
<path d="M5090 7845 c10 -12 10 -33 0 -108 -7 -50 -17 -95 -23 -99 -16 -10 -7
-15 41 -21 43 -5 52 2 28 22 -17 14 -6 66 14 66 7 0 24 -20 38 -45 28 -51 38
-60 70 -60 25 0 30 15 7 23 -8 4 -23 24 -34 46 l-21 40 30 30 c37 36 38 65 4
96 -23 22 -36 25 -97 25 -61 0 -68 -2 -57 -15z m118 -17 c7 -7 12 -27 12 -45
0 -34 -21 -53 -59 -53 -19 0 -21 6 -21 55 0 54 1 55 28 55 15 0 33 -5 40 -12z"/>
<path d="M5605 7790 c-3 -5 -1 -10 5 -10 24 0 -18 -185 -47 -207 -21 -16 -14
-23 32 -33 34 -8 36 -7 31 12 -3 12 2 46 11 77 8 31 18 69 20 84 3 16 14 34
24 40 27 17 23 27 -10 27 -17 0 -33 5 -36 10 -3 6 -10 10 -15 10 -5 0 -12 -4
-15 -10z"/>
<path d="M4230 7770 c-8 -5 -24 -10 -36 -10 -11 0 -29 -7 -40 -15 -19 -14 -19
-15 2 -21 13 -3 24 -16 27 -32 3 -15 11 -45 17 -67 20 -69 24 -105 9 -105 -9
0 -10 -3 -2 -11 8 -8 17 -8 31 0 11 6 30 11 41 11 27 0 27 16 1 23 -29 7 -29
77 -1 77 27 0 81 57 81 84 0 34 -46 76 -84 76 -17 0 -38 -5 -46 -10z m69 -42
c19 -33 6 -77 -27 -89 -19 -7 -24 -4 -37 28 -18 43 -19 80 -2 87 25 10 52 0
66 -26z"/>
<path d="M6015 7638 c4 -15 -6 -46 -25 -86 -16 -34 -30 -67 -30 -72 0 -5 -9
-14 -20 -20 -27 -14 -25 -24 5 -38 22 -10 25 -9 25 9 0 18 17 65 39 108 15 30
27 20 39 -31 11 -46 25 -100 38 -145 8 -29 25 -8 68 81 25 52 52 99 62 104 21
12 12 28 -21 34 -21 4 -24 2 -20 -12 7 -22 -42 -130 -60 -130 -7 0 -15 16 -18
38 -7 52 -24 122 -36 155 -14 35 -54 39 -46 5z"/>
<path d="M3800 7609 c-8 -4 -32 -15 -52 -24 -62 -26 -74 -69 -33 -110 20 -21
34 -25 83 -25 67 0 98 -16 88 -47 -3 -11 -17 -26 -31 -33 -21 -11 -29 -11 -52
1 -16 7 -31 15 -35 17 -5 2 -8 -2 -8 -10 0 -15 39 -68 40 -53 0 6 20 17 45 24
51 15 75 42 75 82 0 45 -41 69 -115 69 -65 0 -91 14 -80 42 3 9 17 21 31 29
22 11 30 11 55 -3 27 -16 29 -16 29 0 -1 27 -23 50 -40 41z"/>
<path d="M6520 7343 c-37 -7 -76 -39 -94 -77 -35 -74 -11 -132 71 -172 l53
-25 26 30 c14 17 33 31 42 31 12 0 10 5 -8 25 -26 27 -56 34 -47 11 7 -17 -29
-66 -48 -66 -14 0 -75 65 -75 79 0 36 49 109 87 129 54 29 113 -5 113 -66 0
-38 12 -41 30 -7 13 24 11 27 -30 65 -24 22 -49 40 -56 40 -7 0 -18 2 -26 4
-7 2 -24 1 -38 -1z"/>
<path d="M3306 7312 c-3 -5 -1 -22 4 -38 5 -16 19 -57 30 -91 12 -34 23 -79
25 -100 2 -21 4 -39 4 -41 2 -6 51 31 51 38 0 4 -9 10 -20 13 -27 7 -25 39 4
66 30 29 70 25 74 -6 4 -28 6 -28 42 -1 31 22 38 38 19 38 -6 0 -57 28 -112
62 -56 33 -105 63 -109 65 -4 2 -9 -1 -12 -5z m80 -83 c41 -25 42 -32 9 -53
-24 -16 -25 -16 -40 20 -25 61 -21 65 31 33z"/>
<path d="M4729 7255 c-4 -3 -40 -10 -80 -15 -96 -13 -164 -26 -214 -40 -22 -6
-53 -15 -70 -19 -200 -55 -433 -165 -636 -302 -68 -45 -130 -89 -137 -96 -8
-7 -30 -26 -50 -41 -50 -36 -260 -247 -297 -297 -16 -22 -32 -42 -35 -45 -3
-3 -17 -21 -30 -40 -13 -19 -27 -37 -30 -40 -14 -11 -70 -99 -70 -109 0 -6 -3
-11 -7 -11 -5 0 -13 -10 -19 -23 -30 -60 -60 -112 -66 -115 -5 -2 -8 -15 -8
-29 0 -39 22 -22 55 43 16 32 35 65 42 72 6 6 15 21 18 32 3 11 10 20 15 20 5
0 12 9 15 20 3 11 12 26 18 32 7 7 33 42 59 78 95 134 268 312 408 420 25 19
47 38 50 41 12 14 160 109 170 109 5 0 10 5 10 10 0 6 5 10 11 10 6 0 30 14
54 30 24 17 47 30 52 30 4 0 39 15 78 34 38 19 88 42 110 51 22 9 48 21 57 26
10 5 27 9 37 9 11 0 23 5 26 10 3 6 15 10 26 10 10 0 27 4 37 9 9 5 37 15 62
21 25 7 56 16 70 20 14 5 57 14 95 20 39 6 93 15 120 20 28 5 115 14 195 20
121 10 170 9 295 -4 175 -19 263 -31 325 -46 25 -6 61 -15 80 -19 35 -9 178
-55 215 -70 87 -36 250 -111 275 -127 14 -8 33 -18 43 -21 9 -3 17 -9 17 -14
0 -5 5 -9 10 -9 12 0 205 -128 235 -156 11 -11 38 -32 60 -49 62 -46 265 -254
318 -326 27 -35 54 -71 61 -80 30 -36 116 -169 116 -178 0 -5 3 -11 8 -13 4
-1 18 -24 31 -50 22 -43 47 -66 59 -53 5 5 -16 53 -28 65 -3 3 -16 25 -29 50
-25 47 -140 221 -151 230 -3 3 -17 20 -30 39 -67 96 -285 314 -380 381 -19 13
-37 27 -40 30 -3 3 -21 17 -40 30 -19 13 -41 30 -48 37 -7 7 -17 13 -22 13 -5
0 -15 6 -22 13 -13 11 -24 18 -80 50 -13 6 -25 15 -28 18 -6 7 -251 126 -290
142 -14 5 -33 13 -42 18 -10 5 -27 9 -37 9 -11 0 -22 4 -25 9 -3 5 -18 11 -33
14 -16 3 -44 10 -63 16 -116 34 -129 37 -280 62 -69 12 -612 24 -621 14z"/>
<path d="M4675 6272 c-24 -22 -151 -33 -237 -22 -120 16 -395 4 -453 -19 -63
-26 -84 -39 -122 -79 -40 -40 -59 -92 -33 -92 6 0 10 10 10 23 0 38 85 117
125 117 8 0 15 4 15 9 0 8 19 11 176 27 56 6 204 -11 204 -23 0 -3 -22 -27
-48 -53 -40 -40 -192 -248 -192 -263 0 -3 -18 -35 -41 -72 -22 -37 -49 -83
-60 -101 -10 -19 -28 -50 -39 -69 -11 -19 -30 -52 -41 -72 -12 -21 -34 -57
-50 -80 -16 -23 -29 -46 -29 -52 0 -6 -4 -11 -8 -11 -4 0 -15 -12 -24 -27 -9
-16 -28 -41 -42 -58 -14 -16 -26 -33 -26 -37 0 -3 -35 -4 -77 -1 -55 4 -75 2
-68 -5 6 -6 37 -12 70 -14 l60 -3 -73 -72 c-40 -40 -82 -75 -93 -78 -10 -4
-19 -10 -19 -14 0 -8 -99 -59 -158 -81 -41 -16 -282 -18 -314 -3 -13 6 -36 17
-53 24 -36 17 -55 34 -55 48 0 6 -4 11 -10 11 -19 0 -10 -23 18 -46 15 -13 33
-24 40 -24 6 0 12 -4 12 -10 0 -5 9 -10 20 -10 11 0 28 -4 38 -9 34 -18 167
-32 196 -21 15 5 43 10 62 10 19 0 42 4 52 9 9 5 35 14 57 21 52 16 166 71
183 87 7 7 17 13 21 13 4 0 40 32 80 70 40 39 77 70 82 70 5 0 9 8 9 18 0 10
9 28 20 40 11 12 20 25 20 30 0 4 8 17 18 28 16 19 23 31 55 87 6 12 14 24 17
27 3 3 11 16 18 29 8 13 22 38 32 56 10 18 37 63 59 100 23 37 41 69 41 72 0
2 18 31 40 63 22 32 40 64 40 69 0 6 4 11 9 11 5 0 13 9 16 20 3 11 12 26 19
32 7 7 31 40 53 73 47 67 87 112 137 150 29 22 43 25 114 25 44 0 84 5 87 10
3 6 13 10 21 10 15 0 44 23 44 34 0 9 -15 7 -25 -2z"/>
<path d="M5800 5648 c-30 -17 -62 -39 -70 -48 -8 -9 -31 -27 -50 -40 -19 -14
-50 -39 -68 -57 -53 -54 -54 -45 0 34 31 47 35 68 14 89 -25 24 -40 15 -65
-39 -14 -28 -46 -84 -73 -123 -54 -79 -64 -84 -168 -84 -60 0 -160 -28 -212
-60 -17 -10 -35 -17 -40 -14 -16 10 -8 71 12 89 11 10 20 23 20 30 0 35 158
155 204 155 33 0 18 -50 -28 -96 -24 -24 -48 -44 -55 -44 -6 0 -11 -4 -11 -10
0 -5 7 -10 15 -10 8 0 15 5 15 10 0 6 6 10 14 10 21 0 84 77 91 112 10 43 -16
68 -71 68 -74 0 -158 -58 -225 -155 -29 -43 -34 -58 -34 -107 1 -48 -2 -58
-17 -58 -9 0 -20 5 -23 10 -3 6 -19 10 -35 10 -16 0 -32 5 -35 10 -3 6 -46 10
-96 10 -49 0 -89 3 -89 6 0 12 46 70 99 126 77 82 85 96 70 114 -14 17 -55 15
-52 -3 1 -6 -10 -24 -25 -39 -15 -16 -43 -49 -62 -74 -19 -25 -40 -51 -47 -58
-7 -7 -13 -17 -13 -22 0 -5 -12 -22 -26 -39 -18 -22 -35 -31 -55 -31 -16 0
-37 -4 -47 -9 -9 -5 -30 -15 -47 -22 -83 -38 -215 -142 -215 -170 0 -14 9 -11
34 14 72 71 146 113 275 155 29 10 37 8 59 -8 26 -21 72 -27 72 -10 0 6 -4 10
-10 10 -5 0 -10 7 -10 15 0 15 31 21 75 16 195 -23 225 -29 225 -45 0 -7 -10
-32 -21 -57 -22 -44 -21 -69 6 -133 7 -17 5 -18 -21 -12 -67 17 -152 17 -234
1 -47 -9 -101 -19 -120 -22 -19 -3 -39 -9 -45 -12 -5 -4 -30 -14 -55 -21 -53
-16 -199 -88 -218 -107 -7 -7 -17 -13 -22 -13 -5 0 -15 -6 -22 -12 -7 -7 -29
-25 -48 -39 -58 -44 -119 -108 -158 -168 -65 -97 -82 -146 -82 -232 0 -168
129 -286 330 -303 88 -7 315 17 326 35 3 5 18 9 34 9 16 0 32 5 35 10 3 6 17
10 31 10 13 0 24 5 24 10 0 6 11 10 25 10 14 0 25 5 25 10 0 6 11 10 25 10 14
0 25 5 25 10 0 6 9 10 20 10 11 0 20 5 20 10 0 6 6 10 13 10 8 0 67 27 132 60
65 33 127 60 137 60 10 0 18 5 18 10 0 6 15 10 34 10 19 0 38 5 41 10 4 6 -8
10 -29 10 -19 0 -38 -4 -41 -10 -3 -5 -17 -10 -31 -10 -13 0 -24 -4 -24 -10 0
-5 -6 -10 -12 -10 -7 0 -78 -32 -158 -71 -80 -39 -156 -76 -170 -81 -14 -6
-33 -14 -42 -19 -10 -5 -27 -9 -37 -9 -11 0 -23 -4 -26 -10 -3 -5 -19 -10 -35
-10 -16 0 -32 -4 -35 -10 -3 -5 -24 -10 -45 -10 -21 0 -42 -4 -45 -10 -9 -14
-241 -13 -284 2 -143 49 -204 146 -186 292 3 28 10 60 15 71 31 74 45 100 85
153 25 34 69 82 98 108 51 46 160 124 172 124 4 0 19 8 33 18 15 10 43 24 62
31 19 7 46 18 60 23 56 24 66 27 100 33 199 34 290 29 397 -21 80 -38 83 -39
83 -21 0 6 -18 21 -41 31 -45 22 -77 60 -80 97 -4 49 2 75 24 102 l22 28 99
-51 c103 -52 116 -57 116 -40 0 6 -9 10 -19 10 -11 0 -21 3 -23 8 -1 4 -34 23
-73 42 -38 19 -72 35 -74 37 -3 2 5 12 16 23 16 14 30 18 57 13 22 -3 36 -2
36 5 0 6 -12 12 -27 14 l-28 3 34 18 c19 9 44 17 57 17 13 0 26 4 29 10 4 6
13 5 25 -2 15 -10 22 -10 32 0 6 6 22 12 34 12 19 0 23 -6 26 -37 2 -30 7 -38
23 -38 12 0 25 11 33 28 7 15 20 27 28 27 7 0 14 9 14 19 0 25 193 220 218
221 4 0 18 9 32 20 44 34 55 22 18 -21 -47 -52 -90 -142 -86 -176 5 -46 30
-50 84 -13 27 19 56 41 64 50 8 9 31 27 50 40 19 14 44 32 54 42 18 17 46 24
46 13 0 -3 -18 -24 -41 -47 -71 -73 -100 -159 -65 -194 17 -16 126 -20 126 -4
0 6 -18 10 -39 10 -77 0 -58 68 50 183 15 15 33 41 39 58 11 26 11 33 -3 46
-15 15 -20 15 -62 -7 -25 -13 -45 -27 -45 -31 0 -4 -8 -10 -17 -13 -10 -3 -38
-24 -62 -46 -25 -23 -57 -49 -73 -58 -15 -9 -28 -20 -28 -24 0 -4 -9 -8 -20
-8 -19 0 -19 1 1 38 23 40 59 94 69 102 16 13 70 100 70 113 0 14 -22 28 -38
26 -4 0 -32 -14 -62 -31z"/>
<path d="M4696 5624 c-27 -27 -36 -44 -36 -69 0 -41 21 -51 63 -30 16 8 36 15
44 15 18 0 16 17 -3 24 -9 4 -24 0 -34 -9 -23 -21 -50 -19 -50 3 0 25 61 82
88 82 12 0 22 5 22 10 0 6 -13 10 -29 10 -20 0 -40 -11 -65 -36z"/>
<path d="M4325 5598 c-48 -25 -136 -114 -159 -162 -9 -19 -20 -36 -25 -38 -14
-5 1 -61 24 -92 12 -16 29 -26 45 -26 23 1 24 2 8 14 -23 17 -25 94 -3 102 8
4 15 14 15 24 0 36 163 160 211 160 54 0 -24 -118 -98 -151 -27 -11 -44 -29
-29 -29 18 0 94 52 126 86 42 45 54 96 28 122 -18 18 -98 12 -143 -10z"/>
<path d="M6287 5570 c-25 -27 -59 -79 -76 -115 -29 -60 -31 -69 -20 -100 7
-19 21 -36 33 -39 27 -7 96 4 96 15 0 5 6 9 13 9 7 0 22 8 33 18 10 10 35 28
54 42 19 13 48 37 63 53 15 17 31 26 35 22 4 -4 1 -10 -5 -12 -7 -3 -13 -10
-13 -16 0 -13 -129 -184 -160 -212 -14 -13 -33 -18 -60 -17 -23 2 -40 -2 -40
-8 0 -5 14 -10 30 -10 17 0 30 -3 30 -6 0 -9 -154 -158 -196 -190 -21 -16 -41
-31 -44 -35 -8 -9 -123 -85 -171 -113 -86 -50 -188 -95 -282 -125 -51 -17
-239 -19 -245 -3 -2 7 -11 12 -19 12 -31 0 -63 52 -63 103 0 26 -4 47 -10 47
-14 0 -12 -76 3 -102 18 -32 48 -61 81 -78 37 -19 215 -20 277 -1 142 44 303
114 337 148 7 7 17 13 22 13 5 0 15 6 22 13 7 7 29 24 48 37 19 13 37 27 40
30 3 3 23 18 45 35 22 16 90 80 151 142 86 88 117 113 138 113 14 0 26 5 26
10 0 6 -9 10 -20 10 -25 0 -25 8 -2 29 10 9 29 32 42 51 13 19 27 37 30 40 4
3 30 40 58 82 55 81 63 112 35 123 -13 4 -33 -9 -73 -52 -69 -72 -158 -153
-168 -153 -5 0 -17 -9 -29 -19 -19 -18 -41 -25 -72 -22 -10 1 -11 10 -7 37 9
43 35 92 88 162 34 43 38 55 28 67 -20 24 -36 18 -83 -35z"/>
<path d="M4795 5570 c-3 -5 1 -10 10 -10 9 0 13 5 10 10 -3 6 -8 10 -10 10 -2
0 -7 -4 -10 -10z"/>
<path d="M5180 5410 c0 -5 5 -10 10 -10 6 0 10 5 10 10 0 6 -4 10 -10 10 -5 0
-10 -4 -10 -10z"/>
<path d="M4100 5370 c0 -5 5 -10 10 -10 6 0 10 5 10 10 0 6 -4 10 -10 10 -5 0
-10 -4 -10 -10z"/>
<path d="M4515 5370 c-3 -5 -2 -10 4 -10 5 0 13 5 16 10 3 6 2 10 -4 10 -5 0
-13 -4 -16 -10z"/>
<path d="M4060 5350 c0 -5 7 -10 15 -10 8 0 15 5 15 10 0 6 -7 10 -15 10 -8 0
-15 -4 -15 -10z"/>
<path d="M4445 5338 c-22 -11 -48 -24 -57 -29 -10 -5 -29 -9 -42 -9 -14 0 -28
-4 -31 -10 -8 -13 39 -13 63 -1 9 5 41 20 69 33 29 13 53 26 53 31 0 10 -10 8
-55 -15z"/>
<path d="M6120 5349 c0 -5 5 -7 10 -4 6 3 10 8 10 11 0 2 -4 4 -10 4 -5 0 -10
-5 -10 -11z"/>
<path d="M3160 5330 c0 -5 20 -10 44 -10 25 0 48 5 51 10 4 6 -13 10 -44 10
-28 0 -51 -4 -51 -10z"/>
<path d="M3420 5330 c20 -13 143 -13 135 0 -3 6 -39 10 -78 10 -50 0 -67 -3
-57 -10z"/>
<path d="M4005 5330 c-3 -5 3 -10 14 -10 11 0 23 5 26 10 3 6 -3 10 -14 10
-11 0 -23 -4 -26 -10z"/>
<path d="M5300 5330 c0 -5 7 -10 15 -10 8 0 15 5 15 10 0 6 -7 10 -15 10 -8 0
-15 -4 -15 -10z"/>
<path d="M5530 5330 c0 -5 7 -10 15 -10 8 0 15 5 15 10 0 6 -7 10 -15 10 -8 0
-15 -4 -15 -10z"/>
<path d="M6080 5330 c0 -5 5 -10 10 -10 6 0 10 5 10 10 0 6 -4 10 -10 10 -5 0
-10 -4 -10 -10z"/>
<path d="M3085 5310 c-4 -6 7 -10 24 -10 17 0 31 5 31 10 0 6 -11 10 -24 10
-14 0 -28 -4 -31 -10z"/>
<path d="M3915 5310 c-4 -6 8 -10 29 -10 20 0 36 5 36 10 0 6 -13 10 -29 10
-17 0 -33 -4 -36 -10z"/>
<path d="M5250 5310 c0 -5 9 -10 20 -10 11 0 20 5 20 10 0 6 -9 10 -20 10 -11
0 -20 -4 -20 -10z"/>
<path d="M5594 5294 c21 -21 26 -36 26 -74 0 -38 -5 -53 -26 -74 -15 -14 -35
-26 -45 -26 -10 0 -21 -4 -24 -10 -4 -6 8 -10 28 -10 39 0 93 44 103 85 7 29
-16 85 -48 115 -32 30 -45 24 -14 -6z"/>
<path d="M6040 5310 c0 -5 4 -10 9 -10 6 0 13 5 16 10 3 6 -1 10 -9 10 -9 0
-16 -4 -16 -10z"/>
<path d="M6585 5310 c-3 -5 1 -10 9 -10 9 0 16 5 16 10 0 6 -4 10 -9 10 -6 0
-13 -4 -16 -10z"/>
<path d="M3040 5290 c0 -5 -6 -10 -12 -10 -7 0 -25 -11 -40 -24 -28 -23 -37
-46 -18 -46 6 0 10 5 10 11 0 15 21 33 58 50 34 15 42 29 17 29 -8 0 -15 -4
-15 -10z"/>
<path d="M4780 5290 c0 -5 4 -10 9 -10 6 0 13 5 16 10 3 6 -1 10 -9 10 -9 0
-16 -4 -16 -10z"/>
<path d="M6540 5290 c0 -5 5 -10 10 -10 6 0 10 5 10 10 0 6 -4 10 -10 10 -5 0
-10 -4 -10 -10z"/>
<path d="M4240 5276 c0 -10 28 -13 41 -5 10 6 7 9 -13 9 -16 0 -28 -2 -28 -4z"/>
<path d="M6480 5270 c0 -5 9 -10 20 -10 11 0 20 5 20 10 0 6 -9 10 -20 10 -11
0 -20 -4 -20 -10z"/>
<path d="M2940 5176 c0 -14 5 -28 10 -31 6 -4 10 7 10 24 0 17 -4 31 -10 31
-5 0 -10 -11 -10 -24z"/>
<path d="M6150 5190 c0 -5 9 -10 19 -10 11 0 23 5 26 10 4 6 -5 10 -19 10 -14
0 -26 -4 -26 -10z"/>
<path d="M5330 5130 c0 -5 9 -10 21 -10 11 0 17 5 14 10 -3 6 -13 10 -21 10
-8 0 -14 -4 -14 -10z"/>
<path d="M5780 5130 c0 -5 11 -10 25 -10 14 0 25 5 25 10 0 6 -11 10 -25 10
-14 0 -25 -4 -25 -10z"/>
<path d="M5390 5110 c0 -5 7 -10 15 -10 8 0 15 5 15 10 0 6 -7 10 -15 10 -8 0
-15 -4 -15 -10z"/>
<path d="M5675 5110 c-4 -6 5 -10 19 -10 14 0 26 5 26 10 0 6 -9 10 -19 10
-11 0 -23 -4 -26 -10z"/>
<path d="M4280 5090 c0 -5 5 -10 10 -10 6 0 10 5 10 10 0 6 -4 10 -10 10 -5 0
-10 -4 -10 -10z"/>
<path d="M5590 5090 c0 -5 11 -10 25 -10 14 0 25 5 25 10 0 6 -11 10 -25 10
-14 0 -25 -4 -25 -10z"/>
<path d="M5530 5070 c0 -5 9 -10 20 -10 11 0 20 5 20 10 0 6 -9 10 -20 10 -11
0 -20 -4 -20 -10z"/>
<path d="M5475 5050 c-3 -5 3 -10 14 -10 12 0 21 5 21 10 0 6 -6 10 -14 10 -8
0 -18 -4 -21 -10z"/>
<path d="M5430 5030 c0 -5 7 -10 15 -10 8 0 15 5 15 10 0 6 -7 10 -15 10 -8 0
-15 -4 -15 -10z"/>
<path d="M5385 5007 c-32 -19 -110 -95 -104 -101 3 -3 29 17 58 44 29 28 59
50 67 50 8 0 14 5 14 10 0 13 -10 12 -35 -3z"/>
<path d="M2415 4716 c-14 -14 -32 -43 -41 -66 -20 -51 -43 -65 -72 -44 -30 21
-27 51 8 84 33 31 30 40 -13 40 -25 0 -29 -3 -24 -21 3 -12 1 -32 -5 -45 -15
-32 12 -91 46 -104 47 -17 66 -2 116 94 22 44 48 56 66 32 21 -29 17 -54 -11
-80 -32 -30 -32 -36 5 -36 l30 0 0 69 c0 61 -3 72 -22 85 -32 22 -55 20 -83
-8z"/>
<path d="M7718 4733 c-1 -5 -19 -20 -39 -35 -36 -27 -51 -26 -62 4 -9 25 -63
33 -92 14 -18 -12 -25 -25 -24 -49 0 -32 0 -32 16 -9 10 15 26 22 47 22 39 0
56 -15 56 -52 0 -27 -2 -28 -50 -28 -36 0 -52 4 -56 15 -12 30 -24 14 -24 -30
0 -43 11 -58 26 -34 11 18 183 3 206 -18 17 -15 18 -14 18 35 0 29 -4 52 -10
52 -5 0 -10 -4 -10 -10 0 -5 -18 -10 -40 -10 -59 0 -52 21 18 60 34 19 42 29
42 52 0 26 -14 39 -22 21z"/>
<path d="M5596 4611 c-9 -10 -16 -24 -16 -32 0 -21 -70 -159 -81 -159 -5 0 -9
-8 -9 -18 0 -9 -16 -41 -35 -69 -19 -29 -35 -57 -35 -63 0 -5 -4 -10 -9 -10
-5 0 -14 -13 -21 -30 -7 -16 -16 -30 -21 -30 -4 0 -11 -9 -14 -20 -3 -11 -12
-26 -18 -32 -7 -7 -28 -33 -47 -58 -19 -25 -37 -47 -41 -50 -14 -12 -132 -195
-144 -224 -8 -18 -11 -43 -8 -54 9 -36 36 -25 63 26 13 26 27 49 30 52 3 3 16
25 29 50 24 43 112 183 129 205 4 6 18 26 32 45 13 19 27 37 30 40 3 3 17 21
30 40 13 19 27 37 30 40 3 3 23 27 45 55 60 74 200 212 224 220 12 3 21 11 21
16 0 5 7 9 15 9 8 0 15 5 15 10 0 6 9 10 19 10 11 0 23 5 26 10 11 17 -23 11
-64 -12 -43 -24 -98 -68 -168 -132 -29 -26 -43 -33 -43 -23 0 8 3 17 8 19 13
6 72 145 72 170 0 15 -30 15 -44 -1z"/>
<path d="M6124 4612 c-19 -58 -81 -187 -116 -239 -15 -23 -28 -44 -28 -48 0
-13 -193 -287 -280 -395 -11 -14 -20 -30 -20 -37 0 -6 -3 -13 -7 -15 -12 -5
-53 -84 -53 -101 0 -8 7 -20 16 -27 18 -16 31 -5 63 53 76 136 177 297 217
347 7 8 34 44 61 80 91 123 298 330 331 330 6 0 12 5 12 10 0 6 9 10 20 10 11
0 20 5 20 10 0 6 -9 10 -20 10 -11 0 -20 -4 -20 -10 0 -5 -5 -10 -11 -10 -20
0 -104 -64 -162 -123 -32 -33 -61 -56 -65 -53 -3 4 -2 10 3 14 6 4 21 30 34
57 13 28 27 58 32 67 14 28 11 75 -6 82 -10 3 -18 -1 -21 -12z"/>
<path d="M5860 4590 c0 -5 5 -10 10 -10 14 0 13 -43 -2 -77 -32 -73 -116 -176
-155 -187 -13 -4 -20 -13 -17 -20 3 -9 -11 -20 -38 -32 l-43 -18 34 -4 c32 -3
78 12 92 31 3 5 24 15 45 22 21 8 38 19 36 24 -1 6 10 24 26 40 46 49 72 108
72 165 0 29 -5 57 -12 64 -15 15 -48 16 -48 2z"/>
<path d="M6400 4581 c13 -24 3 -78 -21 -113 -11 -14 -19 -29 -19 -32 0 -6 -14
-24 -63 -82 -15 -18 -42 -36 -59 -39 -19 -5 -26 -10 -19 -15 12 -7 -14 -29
-52 -43 -30 -11 -9 -25 25 -18 35 8 100 39 108 51 3 5 16 10 30 12 15 2 24 9
22 17 -2 8 8 26 21 40 47 51 86 129 87 174 0 27 -30 67 -52 67 -15 0 -17 -3
-8 -19z"/>
<path d="M6766 4587 c-26 -16 -149 -137 -144 -142 2 -2 18 10 36 27 18 16 35
28 37 26 3 -3 5 -41 6 -85 1 -95 -12 -123 -72 -150 -42 -18 -51 -33 -20 -33
47 0 86 16 117 47 l34 34 -2 99 c-3 98 -3 98 27 124 55 47 135 42 135 -9 0
-14 5 -25 10 -25 22 0 9 53 -17 76 -22 19 -39 24 -78 23 -27 0 -59 -6 -69 -12z"/>
<path d="M5310 4450 c-11 -7 3 -10 45 -10 42 0 56 3 45 10 -8 5 -28 10 -45 10
-16 0 -37 -5 -45 -10z"/>
<path d="M5430 4430 c0 -5 11 -10 25 -10 14 0 25 5 25 10 0 6 -11 10 -25 10
-14 0 -25 -4 -25 -10z"/>
<path d="M6522 4337 c-23 -24 -29 -61 -12 -72 6 -4 10 6 10 22 0 33 16 53 42
53 10 0 18 5 18 10 0 18 -36 10 -58 -13z"/>
<path d="M6590 4350 c0 -5 18 -10 40 -10 22 0 40 5 40 10 0 6 -18 10 -40 10
-22 0 -40 -4 -40 -10z"/>
<path d="M5603 4303 c-27 -18 -31 -63 -7 -63 10 0 14 6 10 15 -9 25 4 45 30
45 13 0 24 5 24 10 0 15 -32 11 -57 -7z"/>
<path d="M6126 4295 c-28 -24 -29 -27 -13 -42 9 -9 20 -13 24 -9 4 4 1 11 -6
16 -12 7 -12 11 2 24 8 9 25 16 36 16 12 0 21 5 21 10 0 18 -35 10 -64 -15z"/>
<path d="M2398 4244 c-32 -17 -66 -58 -74 -89 -9 -36 32 -111 71 -129 58 -28
128 -14 170 34 26 28 26 104 1 142 -35 53 -111 72 -168 42z m151 -48 c16 -10
23 -64 11 -85 -16 -32 -63 -51 -124 -51 -47 0 -57 4 -75 26 -27 34 -27 37 8
76 43 49 130 65 180 34z"/>
<path d="M6535 4250 c3 -5 11 -10 16 -10 6 0 7 5 4 10 -3 6 -11 10 -16 10 -6
0 -7 -4 -4 -10z"/>
<path d="M7446 4208 c-3 -13 -8 -36 -11 -53 -4 -16 -9 -46 -12 -65 -5 -31 -4
-33 11 -21 9 8 27 11 43 8 16 -4 48 -10 73 -15 58 -12 82 -22 96 -40 8 -12 13
-4 23 34 7 27 17 66 22 87 12 45 6 57 -27 57 -28 0 -30 -6 -8 -27 10 -11 13
-25 8 -47 -8 -42 -18 -50 -42 -37 -11 6 -30 11 -41 11 -25 0 -28 28 -4 45 23
17 8 35 -29 35 -29 0 -30 -1 -15 -18 24 -27 6 -49 -37 -44 -39 4 -46 16 -39
55 4 18 14 29 29 33 29 8 22 24 -11 24 -17 0 -26 -7 -29 -22z"/>
<path d="M2900 4150 c0 -11 4 -28 9 -38 8 -14 85 -168 125 -249 6 -13 14 -23
19 -23 4 0 7 -5 7 -10 0 -10 96 -159 110 -170 3 -3 17 -20 30 -39 62 -89 268
-306 333 -350 12 -8 29 -22 37 -31 8 -9 31 -27 50 -40 19 -13 37 -27 40 -30
10 -13 159 -110 169 -110 5 0 11 -4 13 -9 3 -7 270 -141 326 -162 12 -5 32
-13 45 -18 33 -13 127 -42 167 -51 19 -5 53 -14 75 -20 41 -11 92 -21 225 -42
96 -16 530 -16 630 0 89 13 159 27 220 42 25 6 61 15 80 19 44 11 185 58 225
76 17 7 53 23 80 35 95 42 160 75 225 114 72 43 152 96 160 106 3 3 21 17 40
30 19 13 41 30 48 37 7 7 26 20 42 29 32 20 291 279 331 334 15 19 36 46 48
59 11 13 21 28 21 32 0 4 6 14 13 21 22 22 77 106 77 117 0 6 3 11 8 11 4 0
12 10 18 23 30 60 79 153 84 157 10 10 70 147 70 160 0 25 -31 5 -46 -30 -41
-89 -120 -246 -126 -248 -5 -2 -8 -8 -8 -13 0 -6 -18 -37 -40 -69 -22 -32 -40
-62 -40 -65 0 -3 -9 -16 -20 -28 -11 -12 -48 -58 -82 -102 -78 -99 -265 -286
-350 -349 -35 -26 -70 -53 -78 -60 -37 -29 -110 -76 -119 -76 -6 0 -11 -3 -11
-8 0 -4 -21 -18 -47 -32 -27 -13 -50 -27 -53 -30 -12 -14 -263 -130 -280 -130
-6 0 -18 -4 -28 -9 -40 -20 -96 -40 -172 -61 -25 -7 -56 -16 -70 -20 -14 -5
-45 -11 -70 -15 -25 -4 -70 -11 -100 -15 -99 -16 -294 -33 -365 -33 -78 1
-281 19 -365 32 -30 5 -75 12 -100 16 -25 4 -56 10 -70 15 -14 4 -45 13 -70
20 -52 14 -96 28 -127 41 -13 5 -33 13 -45 18 -13 4 -35 13 -50 20 -16 6 -38
15 -50 20 -67 25 -265 128 -286 148 -6 6 -21 15 -32 18 -11 3 -20 11 -20 16 0
5 -6 9 -13 9 -7 0 -22 8 -33 18 -10 9 -48 37 -83 61 -115 80 -339 298 -411
402 -13 19 -27 36 -30 39 -3 3 -17 21 -30 40 -13 19 -27 37 -30 40 -24 22
-136 225 -199 363 -32 67 -51 85 -51 47z"/>
<path d="M7322 3767 c-5 -7 -17 -30 -27 -52 -9 -22 -21 -48 -26 -57 -14 -28
-11 -35 19 -35 15 0 47 -10 71 -21 25 -12 50 -22 56 -22 7 0 24 -11 39 -25 15
-14 29 -25 31 -25 4 0 12 17 51 108 9 20 18 40 20 44 5 8 -57 40 -64 33 -3 -3
2 -13 11 -23 21 -23 21 -51 2 -76 -14 -18 -18 -19 -53 -7 -20 8 -40 19 -44 25
-8 13 9 36 28 36 24 0 15 18 -16 33 -27 14 -54 7 -30 -8 15 -9 12 -42 -4 -48
-15 -6 -71 17 -81 33 -11 18 18 60 41 60 32 0 38 15 9 28 -17 8 -26 8 -33 -1z"/>
<path d="M2672 3740 c-7 -11 -17 -20 -22 -20 -5 0 -39 -14 -75 -30 -43 -20
-74 -28 -90 -24 l-23 6 21 -46 c21 -47 37 -59 37 -30 0 22 29 43 59 44 21 0
23 -3 17 -31 -5 -27 -4 -30 12 -24 9 4 25 10 35 12 24 7 21 23 -4 23 -15 0
-20 5 -17 22 2 15 15 27 42 37 36 14 40 13 52 -4 18 -25 18 -50 -1 -69 -22
-22 -3 -27 24 -6 24 17 24 19 9 51 -58 126 -55 122 -76 89z"/>
<path d="M2863 3363 c-31 -20 -29 -35 2 -27 27 7 55 -9 55 -31 0 -17 -168
-127 -175 -115 -4 6 -10 8 -16 5 -5 -3 3 -24 18 -47 27 -39 27 -40 35 -17 5
14 42 46 89 77 76 50 82 52 95 35 18 -24 17 -33 -3 -55 -26 -29 -5 -35 23 -7
l25 26 -56 81 c-31 45 -59 83 -63 86 -4 2 -17 -3 -29 -11z"/>
<path d="M7092 3340 c-17 -28 -16 -46 3 -30 11 9 23 5 62 -21 90 -61 86 -69
-37 -69 -89 0 -101 -2 -120 -22 -11 -12 -20 -25 -20 -30 0 -12 18 -10 22 4 5
13 151 -84 173 -115 15 -21 15 -21 30 -2 19 27 20 52 1 36 -11 -9 -26 -3 -70
30 -31 23 -56 46 -56 50 0 5 47 9 104 9 144 0 150 10 43 86 -45 32 -88 67 -95
76 -17 23 -24 23 -40 -2z"/>
<path d="M3167 2960 c-4 -16 -25 -68 -47 -116 -52 -110 -48 -125 22 -88 29 16
66 37 81 47 16 11 30 17 32 15 3 -2 -13 -40 -35 -84 -22 -43 -40 -82 -40 -86
0 -11 44 -10 56 1 5 5 26 19 47 30 20 12 53 30 72 41 20 11 47 20 60 20 31 0
31 7 3 31 -27 21 -39 24 -33 7 3 -8 -20 -29 -53 -50 -55 -35 -92 -54 -92 -47
0 2 18 40 40 83 22 43 40 85 40 93 0 20 -30 9 -109 -39 -35 -21 -66 -36 -69
-33 -3 3 5 24 18 48 13 23 29 52 35 64 5 13 18 23 28 23 23 0 22 12 -5 37 -38
34 -45 34 -51 3z"/>
<path d="M6757 2922 c-30 -31 -35 -44 -13 -36 14 5 136 -115 148 -147 9 -24
12 -24 43 6 30 31 31 35 7 35 -25 0 -142 123 -142 149 0 28 -11 26 -43 -7z"/>
<path d="M6431 2654 c-59 -32 -70 -50 -71 -112 0 -61 23 -103 70 -127 56 -29
109 -11 167 55 27 30 28 34 7 65 -8 13 -14 29 -12 37 5 22 -6 23 -39 3 -36
-21 -42 -35 -17 -35 19 0 43 -28 44 -51 0 -27 -38 -53 -76 -52 -81 2 -145 124
-95 181 21 25 86 31 94 10 2 -7 8 -10 12 -5 10 9 -15 57 -29 56 -6 0 -31 -11
-55 -25z"/>
<path d="M3645 2480 c-55 -44 -106 -80 -115 -80 -10 0 -7 -7 10 -20 31 -25 40
-25 40 -1 0 10 7 24 15 31 24 20 85 -13 85 -46 0 -13 -7 -27 -15 -30 -23 -9
-18 -22 15 -39 38 -20 40 -19 40 12 0 28 14 118 31 192 5 25 6 48 1 53 -5 5
-52 -27 -107 -72z m56 -26 c-4 -48 -3 -46 -35 -38 -32 8 -33 26 -3 58 30 33
42 27 38 -20z"/>
<path d="M6023 2426 c-26 -12 -30 -26 -8 -26 9 0 18 -8 21 -17 7 -23 21 -57
36 -88 6 -14 9 -28 5 -31 -3 -3 -46 17 -95 45 -87 50 -125 61 -137 42 -3 -6 3
-14 12 -20 10 -5 24 -26 32 -48 8 -21 22 -57 33 -80 12 -25 17 -50 13 -62 -8
-25 8 -27 45 -6 24 14 24 15 5 20 -12 4 -26 21 -33 38 -8 18 -18 40 -23 49
-10 20 -12 48 -3 48 3 0 33 -16 67 -36 128 -76 127 -75 133 -60 3 8 -2 32 -11
53 -9 21 -22 49 -27 63 -6 14 -14 33 -19 42 -5 10 -9 34 -9 53 0 37 -2 39 -37
21z"/>
<path d="M4104 2330 c-1 -22 -6 -46 -11 -52 -5 -7 -15 -33 -23 -58 -7 -25 -22
-52 -33 -61 -22 -18 -10 -33 38 -43 30 -6 30 -6 30 36 0 31 4 43 16 46 18 3
39 -43 39 -85 0 -16 8 -27 26 -34 33 -12 40 -6 27 24 -5 12 -15 37 -21 55 -9
28 -8 34 6 38 34 11 47 21 60 48 12 23 11 31 -3 52 -16 24 -71 54 -125 67 -24
6 -25 4 -26 -33z m114 -49 c2 -18 -2 -39 -9 -47 -13 -15 -75 -19 -83 -5 -7 11
22 83 37 93 22 13 52 -9 55 -41z"/>
<path d="M5480 2250 c-8 -5 -32 -10 -52 -10 -43 0 -57 -14 -29 -29 19 -11 24
-31 37 -153 5 -41 3 -58 -5 -58 -7 0 -10 -4 -7 -9 3 -5 24 -4 48 1 111 24 133
29 135 32 2 2 0 17 -3 34 -6 32 -24 35 -24 5 0 -22 -30 -42 -61 -43 -30 0 -39
15 -39 67 0 34 1 35 30 30 28 -6 30 -4 30 23 0 16 -4 32 -10 35 -5 3 -10 -3
-10 -15 0 -17 -5 -21 -27 -18 -24 2 -29 8 -31 36 -2 18 2 40 9 48 15 19 58 18
65 -1 9 -23 26 -18 22 8 -2 16 -10 23 -33 25 -16 1 -37 -2 -45 -8z"/>
<path d="M4570 2231 c0 -6 4 -11 9 -11 16 0 1 -140 -20 -187 -21 -49 -23 -48
76 -56 28 -2 56 -6 64 -8 8 -3 17 8 22 25 10 36 2 48 -15 23 -9 -11 -27 -17
-56 -17 l-43 0 7 38 c3 20 6 43 6 50 0 18 31 15 46 -5 15 -22 22 -16 30 25 4
21 3 32 -5 32 -6 0 -11 -4 -11 -10 0 -5 -13 -10 -30 -10 -16 0 -30 4 -30 9 0
18 24 76 34 83 16 10 5 16 -42 24 -28 4 -42 3 -42 -5z"/>
<path d="M4693 2204 c15 -8 27 -21 27 -29 0 -8 5 -15 10 -15 6 0 10 14 10 30
0 28 -2 30 -37 30 l-38 -1 28 -15z"/>
</g>
</svg>
